<!-- Generated by IcoMoon.io -->
<svg version="1.1" xmlns="http://www.w3.org/2000/svg" width="1024" height="1024" viewBox="0 0 1024 1024">
<title>spa-svgrepo-com</title>
<g id="icomoon-ignore">
</g>
<path fill="#fff" d="M839.434 593.869l-110.907-74.864c-12.929-59.88-106.139-89.266-198.477-92.588v-78.477c0-9.781-7.92-17.7-17.7-17.7-9.787 0-17.7 7.92-17.7 17.7v78.477c-92.104 3.305-184.996 32.534-198.412 92.067l-111.669 75.385c-53.587 36.148-70.080 107.574-37.752 163.545l118.338 205.031c21.989 38.1 62.649 61.557 106.621 61.557h280.448c43.978 0 84.634-23.457 106.623-61.557l118.34-205.031c32.328-55.974 15.837-127.4-37.752-163.545zM494.647 497.481v17.996c0 9.785 7.915 17.7 17.7 17.7 9.781 0 17.7-7.915 17.7-17.7v-17.996c75.572 3.112 119.895 24.912 128.436 35.959-9.196 11.909-59.466 36.577-146.136 36.577-86.712 0-137.014-24.669-146.208-36.577 8.541-11.047 52.897-32.847 128.508-35.959zM815.858 722.012l-118.343 205.048c-9.299 16.111-26.654 26.137-45.292 26.137h-280.45c-18.632 0-35.989-10.026-45.288-26.154l-118.377-205.031c-13.655-23.663-6.604-54.158 16.074-69.455l96.145-64.91c39.346 36.163 117.58 53.175 192.019 53.175 74.226 0 152.288-16.925 191.667-52.916l95.835 64.669c22.647 15.279 29.7 45.774 16.011 69.437z"></path>
<path fill="#fff" d="M454.851 401.544c-11.65-13.414-18.945-30.719-18.945-49.872 0-42.213 67.309-96.026 76.406-143.717 10.578 48.16 76.441 101.504 76.441 143.717 0 19.153-7.296 36.458-18.912 49.872 57.943-22.958 99.046-79.222 99.046-145.344 0-72.236-94.249-160.447-137.808-245.048-7.692-14.936-29.146-14.849-36.751 0.128-42.716 84.121-138.597 172.814-138.597 244.92 0 66.139 41.14 122.386 99.12 145.344z"></path>
<path fill="#fff" d="M342.489 866.976c15.112 26.204 43.079 42.347 73.366 42.347h193.015c30.287 0 58.254-16.143 73.363-42.367l21.815-37.807h-383.371l21.811 37.826z"></path>
</svg>
