<!-- Generated by IcoMoon.io -->
<svg version="1.1" xmlns="http://www.w3.org/2000/svg" width="1024" height="1024" viewBox="0 0 1024 1024">
<title>spa-svgrepo-com</title>
<g id="icomoon-ignore">
</g>
<path fill="#fff" d="M666.777 968.487h-666.777v-62.172c12.131 9.64 27.62 15.49 44.3 15.49h576.444l46.033 46.682zM288.547 55.513c-35.743 0-64.771 29.028-64.771 64.771 0 22.204 11.156 41.809 28.27 53.507 7.365-20.363 19.28-39.101 35.094-54.915s34.552-27.728 54.915-35.094c-11.698-17.112-31.303-28.27-53.507-28.27zM270.025 225.241c0 68.237 55.349 123.477 123.477 123.477 68.129 0 123.477-55.348 123.477-123.477 0-68.237-55.348-123.477-123.477-123.477-14.513 0-28.378 2.491-41.267 7.040-34.985 12.456-62.822 40.184-75.169 75.169-4.549 12.998-7.040 26.861-7.040 41.267zM202.979 395.617c-28.92 64.122-91.958 228-109.288 269.267h215.11c4.766-11.697 10.074-23.070 15.922-33.793 20.255-37.801 83.511-56.541 68.454-109.288-0.108-0.433-0.325-0.868-0.433-1.409l56.649 53.726c4.223 4.007 9.315 7.256 14.731 9.315l154.888 59.139c5.199 1.951 10.615 2.923 15.922 2.923 17.98 0 34.877-10.94 41.591-28.703 8.774-22.961-2.708-48.741-25.779-57.514l-136.908-52.315c-6.39-2.491-12.24-6.174-17.222-10.831 0 0-120.553-114.379-120.661-114.487-5.090-4.874-11.698-8.015-18.629-10.29-1.625-0.542-3.359-1.083-5.091-1.516-1.841-0.542-3.791-1.083-5.741-1.516-30.112-8.015-63.58-14.839-94.558-12.131-10.181 0.867-21.338 3.466-30.003 9.423-9.966 7.148-14.082 19.28-18.956 30.002zM44.3 894.726h587.708l56.323 57.080c5.307 5.416 11.698 9.64 18.522 12.456 6.715 2.708 13.865 4.224 21.231 4.224h240.022c31.194 0 56.323-25.562 55.891-56.756-0.542-30.654-26.105-54.914-56.756-54.914h-215.762l-146.656-148.823c-11.373-11.591-18.088-16.355-38.451-16.355-35.094 0-522.070 0.324-522.070 0.324-24.479 0-44.3 19.822-44.3 44.3v114.163c0 24.478 19.821 44.3 44.3 44.3zM943.409 690.446c0-70.728-57.406-128.134-128.135-128.134s-128.135 57.406-128.135 128.134c0 70.73 57.406 128.136 128.135 128.136s128.135-57.299 128.135-128.136z"></path>
</svg>
