<!-- Generated by IcoMoon.io -->
<svg version="1.1" xmlns="http://www.w3.org/2000/svg" width="1024" height="1024" viewBox="0 0 1024 1024">
<title>spa-svgrepo-com</title>
<g id="icomoon-ignore">
</g>
<path fill="#fff" d="M495.628 568.394c16.876-1.786 29.102-16.908 27.32-33.78-1.786-16.876-16.912-29.102-33.784-27.32l6.463 61.1zM141.416 218.891l30.707 0.898c0.007-0.231 0.011-0.462 0.012-0.693l-30.719-0.205zM172.095 188.416l-0.001 30.722 0.341-0.004-0.34-30.718zM349.842 271.112c14.181 9.313 33.228 5.367 42.541-8.814s5.367-33.228-8.814-42.541l-33.728 51.355zM172.095 157.696c-16.213 0-31.769 6.412-43.271 17.838l43.27 43.602 0.001-61.44zM128.824 175.534c-11.503 11.426-18.019 26.938-18.127 43.151l61.426 0.439-43.299-43.59zM110.709 217.993c-6.2 212.044 181.112 371.97 384.92 350.401l-6.463-61.1c-169.103 17.895-322.088-114.928-317.042-287.505l-61.414-1.796zM383.57 219.757c-62.813-41.253-136.552-62.893-211.816-62.059l0.681 61.436c63.038-0.698 124.798 17.426 177.407 51.978l33.728-51.355z"></path>
<path fill="#fff" d="M594.747 223.676c-14.029 9.542-17.666 28.649-8.122 42.678 9.54 14.029 28.647 17.666 42.676 8.124l-34.554-50.803zM811.090 188.416l-0.172 30.72h0.131l0.041-30.72zM841.687 218.89l-30.72 0.164c0.004 0.237 0.008 0.473 0.012 0.71l30.708-0.874zM753.050 450.847l20.91 22.508c0.479-0.446 0.942-0.905 1.389-1.376l-22.299-21.131zM632.132 522.539v0zM500.236 507.625c-16.9-1.524-31.83 10.945-33.354 27.841-1.52 16.9 10.945 31.83 27.845 33.35l5.509-61.19zM629.301 274.479c53.539-36.413 116.871-55.712 181.617-55.344l0.348-61.439c-77.189-0.44-152.691 22.569-216.519 65.98l34.554 50.803zM811.049 219.136c-0.020 0-0.041-0.009-0.057-0.024l43.36-43.532c-11.481-11.434-27.017-17.863-43.221-17.884l-0.082 61.44zM810.992 219.112c-0.012-0.015-0.025-0.036-0.025-0.058l61.44-0.328c-0.086-16.202-6.578-31.712-18.055-43.146l-43.36 43.532zM810.979 219.764c1.098 38.553-5.423 76.944-19.19 112.972l57.393 21.931c16.654-43.58 24.539-90.018 23.212-136.652l-61.415 1.749zM791.79 332.736c-13.767 36.028-34.509 68.984-61.039 96.981l44.597 42.261c32.092-33.866 57.18-73.731 73.834-117.311l-57.393-21.931zM732.14 428.34c-31.506 29.273-68.974 51.453-109.72 65.051l19.423 58.29c49.132-16.376 94.179-43.082 132.116-78.328l-41.82-45.014zM622.42 493.392c-39.33 13.111-80.929 17.949-122.184 14.234l-5.509 61.19c49.676 4.473 99.762-1.352 147.116-17.134l-19.423-58.29z"></path>
<path fill="#fff" d="M829.493 621.306c0.279-16.966-13.246-30.941-30.212-31.22-16.962-0.279-30.941 13.251-31.22 30.212l61.432 1.008zM215.116 620.302c-0.276-16.966-14.252-30.491-31.216-30.216-16.964 0.279-30.492 14.254-30.215 31.216l61.432-0.999zM768.061 620.298c-0.397 24.461-21.463 54.792-73.748 80.732-50.459 25.035-122.044 41.37-202.723 41.37v61.44c88.121 0 169.439-17.707 230.031-47.772 58.765-29.155 106.897-74.985 107.872-134.762l-61.432-1.008zM491.59 742.4c-80.691 0-152.28-16.298-202.734-41.312-52.264-25.911-73.34-56.238-73.74-80.785l-61.432 0.999c0.975 59.855 49.093 105.685 107.88 134.832 60.597 30.044 141.913 47.706 230.026 47.706v-61.44z"></path>
<path fill="#fff" d="M952.32 619.397h30.72v-0.299l-30.72 0.299zM30.72 619.52l-30.72-0.287v0.287h30.72zM94.491 513.872c9.517-14.045 5.845-33.149-8.201-42.664s-33.147-5.845-42.664 8.2l50.864 34.464zM940.044 480.342c-9.454-14.086-28.541-17.838-42.627-8.385-14.086 9.458-17.842 28.541-8.385 42.627l51.012-34.243zM921.6 619.397c0 71.361-43.389 139.727-121.291 191.66-77.681 51.79-186.765 84.82-308.789 84.82v61.44c132.461 0 253.776-35.742 342.872-95.138 88.879-59.253 148.648-144.486 148.648-242.782h-61.44zM491.52 895.877c-122.028 0-231.116-33.001-308.798-84.763-77.895-51.9-121.282-120.238-121.282-191.594h-61.44c0 98.3 59.771 183.501 148.654 242.725 89.097 59.363 210.409 95.072 342.866 95.072v-61.44zM61.439 619.807c0.353-37.794 11.851-74.646 33.052-105.935l-50.864-34.464c-27.983 41.3-43.158 89.94-43.625 139.825l61.437 0.573zM889.033 514.585c20.877 31.105 32.203 67.641 32.567 105.112l61.44-0.598c-0.487-49.467-15.438-97.698-42.996-138.756l-51.012 34.243z"></path>
<path fill="#fff" d="M492.401 537.846l-19.321 23.884c11.268 9.114 27.374 9.114 38.642 0l-19.321-23.884zM369.52 292.085l-30.709-0.836c-0.018 0.655-0.015 1.309 0.009 1.964l30.699-1.128zM471.347 64.921l21.058 22.367c0.152-0.141 0.299-0.284 0.446-0.429l-21.504-21.939zM492.421 56.315v0zM513.495 64.921l-21.504 21.939c0.143 0.142 0.291 0.282 0.438 0.421l21.066-22.359zM615.281 292.085l30.7 1.128c0.025-0.655 0.025-1.312 0.008-1.967l-30.708 0.839zM492.851 86.859c-0.115 0.113-0.27 0.176-0.43 0.176v-61.44c-15.921 0-31.207 6.243-42.578 17.387l43.008 43.877zM492.421 87.035c-0.16 0-0.315-0.063-0.43-0.176l43.008-43.877c-11.37-11.145-26.657-17.387-42.578-17.387v61.44zM400.229 292.922c2.104-77.239 35.917-152.67 92.176-205.634l-42.115-44.735c-68.169 64.176-108.928 155.106-111.478 248.695l61.417 1.673zM511.721 513.962c-67.076-54.264-108.336-136.785-111.502-223.004l-61.399 2.255c3.818 103.965 53.376 203.083 134.259 268.517l38.642-47.768zM584.581 290.958c-3.166 86.22-44.425 168.74-111.501 223.004l38.642 47.768c80.88-65.434 130.441-164.551 134.259-268.517l-61.399-2.255zM492.429 87.28c56.234 52.983 90.030 128.41 92.144 205.645l61.415-1.679c-2.556-93.576-43.295-184.491-111.428-248.684l-42.131 44.718z"></path>
</svg>
